<?xml version="1.0" encoding="UTF-8"?>
<svg id="Layer_1" data-name="Layer 1" xmlns="http://www.w3.org/2000/svg" viewBox="0 0 34.37 42.04">
  <defs>
    <style>
      .cls-1 {
        fill: #fafafa;
      }

      .cls-2 {
        fill: #4d4d4d;
      }

      .cls-3 {
        fill: #181818;
      }

      .cls-4 {
        fill: #fdfdfd;
      }

      .cls-5 {
        fill: #fefefe;
      }
    </style>
  </defs>
  <path class="cls-3" d="m15.44,0c.33.09.66.12.98.22,1.07.35,1.93.96,2.59,1.86.07.09.15.15.27.17,1.64.24,3.2.74,4.62,1.59,2.92,1.74,4.79,4.23,5.46,7.6.04.19.09.38.08.57,0,.36.14.62.36.89.94,1.24,1.2,2.65.91,4.16-.36,1.86-1.38,3.32-2.84,4.5-.44.36-.9.66-1.4.92-.15.08-.15.13-.04.25.39.44.74.91,1.04,1.42.06.09.12.17.24.19.73.15,1.28.57,1.65,1.2.1.17.16.2.33.07.55-.46,1.17-.77,1.91-.77,1.3,0,2.44.96,2.7,2.27.17.91.05,1.8-.23,2.65-.66,2.03-1.72,3.83-3.22,5.35-.46.47-.99.86-1.6,1.09-1,.38-1.92.07-2.48-.83-.11-.17-.16-.17-.29-.03-1.12,1.18-2.49,1.94-4.02,2.45-.28.09-.55.18-.83.25-.14.04-.22.1-.28.23-.45.93-1,1.79-1.75,2.51-.63.6-1.34,1.08-2.22,1.21-1.33.2-2.39-.29-3.13-1.41-.2-.3-.38-.39-.73-.38-2.15.06-4.11-.52-5.87-1.75-.64-.44-1.2-.98-1.63-1.62-.1-.15-.22-.24-.38-.3-1.6-.65-2.99-1.57-4.08-2.92-.7-.88-1.25-1.83-1.46-2.95-.09-.45-.09-.9.02-1.35.28-1.11,1.23-1.64,2.3-1.23.38.15.7.23,1.06-.01.17-.12.42-.13.64-.14.1,0,.14-.02.09-.14-.36-1.01-.18-1.89.6-2.64,0,0,.01-.02.03-.06-.33-.15-.65-.34-.92-.59-1.34-1.2-1.56-3.31-.46-4.76.12-.16.08-.2-.07-.28-1.25-.7-1.95-1.8-2.16-3.2-.2-1.34.12-2.56.99-3.61.41-.49.91-.88,1.51-1.1.17-.07.16-.12.07-.25-1.94-3.11,0-7.24,3.63-7.73.83-.12,1.65-.02,2.44.28.13.05.17.04.21-.11C10.61,1.7,12.22.3,14.32.04c.04,0,.07,0,.09-.04h1.02Z"/>
  <path class="cls-2" d="m32.39,15.06c-.19-.67-.37-1.32-.54-1.97-.04-.15-.11-.23-.25-.28-.32-.12-.63-.25-.94-.38-.05-.02-.12-.03-.12-.09s.08-.07.12-.09c.3-.12.6-.25.91-.36.17-.07.26-.17.3-.35.15-.58.32-1.16.48-1.74.01-.06.02-.12.1-.2.09.3.16.57.24.86.11.39.22.79.33,1.18.03.11.09.17.19.2.33.13.67.27,1,.41.05.02.12.03.12.09,0,.05-.07.06-.12.08-.3.12-.59.25-.88.35-.22.07-.31.21-.36.42-.15.58-.31,1.16-.48,1.74-.01.05,0,.1-.09.15Z"/>
  <path class="cls-4" d="m18.02,41.07c-1.24.65-2.6.22-3.34-1.03-.27-.46-.45-.96-.58-1.48-.09-.33-.24-.46-.46-.41-.22.06-.3.25-.2.58.06.22.12.43.2.65.04.11.04.17-.1.17-2.27.04-4.31-.61-6.06-2.08-.33-.28-.63-.58-.85-.94-.21-.36-.54-.53-.88-.68-1.15-.49-2.2-1.12-3.07-2-.91-.92-1.63-1.97-1.91-3.27-.09-.41-.09-.81.04-1.22.21-.6.67-.85,1.29-.66.13.04.25.1.37.15.07.03.1.08.09.17-.04.37.14.65.43.85.57.38,1.18.7,1.87.83.12.02.14.06.09.16-.15.3-.26.62-.36.95-.07.24,0,.43.2.49.2.06.37-.04.45-.28.26-.82.65-1.58,1.13-2.29.07-.11.09-.22.07-.34-.2-1.14-.2-2.28-.12-3.43.07-1.13-.11-2.22-.42-3.31-.25-.86-.66-1.66-.96-2.51-.55-1.55-.75-3.14-.7-4.78.07-1.68.38-3.3,1.03-4.84.87-2.07,2.2-3.76,4-5.1,1.78-1.33,3.79-2.15,5.98-2.45,2.94-.41,5.76-.01,8.35,1.52,2.78,1.66,4.55,4.07,5.11,7.29.05.28.07.57.09.86,0,.12.05.22.13.3,1.33,1.47,1.46,3.15.83,4.95-.59,1.66-1.74,2.87-3.24,3.77-1.24.74-2.58,1.18-4.01,1.36-.03,0-.06,0-.09.01-.24.04-.37.18-.35.38.02.2.2.33.44.3.49-.05.96-.13,1.44-.25.52-.13,1.04-.29,1.53-.5.12-.05.19-.03.28.06,1.7,1.81,2.56,3.94,2.41,6.45-.1,1.58-.5,3.08-1.38,4.43-.92,1.41-2.23,2.35-3.77,2.98-.39.16-.79.3-1.2.41-.02-.1.03-.17.06-.25.54-1.52.88-3.09.87-4.71,0-.67-.09-1.34-.31-1.99-.54-1.6-1.91-2.5-3.64-2.41-1.19.07-2.18.57-3.02,1.38-.15.14-.23.15-.41.05-.9-.51-1.84-.61-2.82-.24-.11.04-.22.1-.32.17-.18.12-.22.32-.12.48.1.16.28.2.46.1.78-.43,1.55-.35,2.32,0,.24.11.24.12.08.34-.32.44-.59.92-.81,1.41-.11.23-.05.42.13.51.2.09.38.01.49-.22.41-.89.94-1.7,1.7-2.34.77-.64,1.63-1.01,2.65-.96,1.42.06,2.36.82,2.72,2.19.21.82.24,1.65.16,2.49-.17,0-.15-.13-.15-.22,0-.25-.04-.48-.11-.71-.21-.73-.88-.96-1.45-.89-.7.09-1.2.51-1.63,1.02-.78.91-1.23,1.98-1.5,3.15-.22.97-.35,1.95-.33,2.94.01.51.09,1.02.29,1.49.15.36.37.65.75.8.09.02.18.07.13.19Z"/>
  <path class="cls-2" d="m18.02,41.07s-.05-.06-.08-.07c-.59-.19-.85-.65-1.01-1.2-.2-.7-.22-1.42-.16-2.15.07-.88.19-1.75.44-2.6.33-1.08.81-2.08,1.62-2.89.39-.39.83-.72,1.41-.8.66-.09,1.41.17,1.63,1.02.06.21.1.43.09.65,0,.09,0,.18.04.27-.04.72-.18,1.41-.36,2.1-.34,1.33-.83,2.6-1.6,3.74-.51.76-1.11,1.42-1.92,1.88-.04.02-.09.04-.12.05Z"/>
  <path class="cls-5" d="m29.06,35.55c-1.01.44-1.6-.18-1.9-.84-.04-.09,0-.16.04-.23,1.21-1.77,1.7-3.74,1.65-5.87,0-.41-.07-.8-.14-1.2-.02-.1-.04-.18.12-.15.17.04.29-.07.39-.2.38-.48.81-.91,1.34-1.22,1.46-.88,3.07.25,3.1,1.75.04.26,0,.48-.2.69-.36.34-.54.8-.77,1.24-.39.75-.73,1.52-1.13,2.26-.48.88-.99,1.73-1.59,2.53-.3.42-.58.85-.91,1.24Z"/>
  <path class="cls-2" d="m9.4,4.46c-2.37,1.62-4.05,3.75-5.03,6.44-.96-.93-.86-3.45.18-4.89,1.28-1.77,3.47-2.09,4.84-1.55Z"/>
  <path class="cls-2" d="m10.83,3.63c.24-1.06,1.39-2.46,3.15-2.84,1.68-.37,3.36.36,4.16,1.36-2.57-.13-5,.33-7.31,1.49Z"/>
  <path class="cls-2" d="m1.82,15.58c.07-1.4.59-2.55,1.86-3.27.02-.01.05-.03.07-.04.06-.02.12-.08.17-.04.06.04.01.12,0,.17-.41,1.81-.49,3.63-.26,5.46.04.3.11.59.16.9,0,.05.06.12,0,.15-.04.03-.09-.02-.14-.04-.91-.49-1.44-1.27-1.72-2.24-.09-.34-.14-.69-.14-1.05Z"/>
  <path class="cls-2" d="m29.06,35.55c.01-.2.13-.34.24-.49,1.09-1.39,1.99-2.89,2.75-4.47.28-.58.55-1.16.87-1.73.17-.3.34-.6.64-.81.17-.12.05-.3.1-.46.09.41,0,.8-.07,1.2-.28,1.45-.94,2.75-1.73,3.98-.57.88-1.2,1.7-2.04,2.33-.22.18-.46.33-.75.43Z"/>
  <path class="cls-2" d="m3.42,21.81c0-.53.16-1.07.49-1.56.12-.18.15-.18.24,0,.57,1.17,1.11,2.36,1.36,3.66.03.16.05.32.07.48.03.22.01.23-.2.17-.53-.15-.97-.45-1.32-.88-.43-.51-.65-1.15-.65-1.88Z"/>
  <path class="cls-2" d="m5.59,26.82c0,.43-.02.86.02,1.29,0,.06.04.14-.03.17-.06.04-.12-.02-.17-.05-.69-.38-.92-1.48-.46-2.19.14-.21.3-.38.54-.5.13-.07.17-.03.17.12,0,.38,0,.78,0,1.16h-.07Z"/>
  <path class="cls-2" d="m4.14,28.62c.57,0,1,.34,1.09.87.07.41-.15.6-.54.46-.44-.16-.87-.34-1.25-.61-.27-.18-.25-.36.02-.53.22-.12.46-.19.68-.19Z"/>
  <path class="cls-1" d="m28.57,26.75c-.15-.53-.32-1.03-.54-1.54.3.12.48.33.65.54.37.48.36.54-.1,1Z"/>
  <path class="cls-3" d="m15.82,27.56c-.41,0-.8-.09-1.18-.22-.15-.05-.25-.04-.37.04-.35.23-.73.4-1.15.49-.25.06-.44-.04-.49-.25-.04-.2.08-.36.33-.41.41-.09.78-.26,1.11-.51.2-.15.38-.16.61-.07.42.17.86.28,1.33.25.86-.07,1.46-.8,1.37-1.65-.04-.4.06-.51.46-.52.33,0,.65-.04.96-.16.19-.08.33-.19.31-.43-.02-.22-.2-.28-.37-.33-.2-.06-.42-.07-.63-.07-.53-.01-1.06-.02-1.59-.04-.34,0-.46-.16-.4-.49.04-.2.06-.41.02-.61-.03-.14-.09-.25-.24-.3-.15-.04-.26.02-.36.13-.19.21-.3.46-.39.73-.05.17-.14.28-.3.35-.28.11-.44.34-.54.6-.08.2-.22.3-.42.34-.57.1-1.12.08-1.69.03-.07,0-.14-.04-.2-.08-.3-.22-.59-.46-.82-.77-.15-.2-.14-.4.01-.53.16-.13.37-.1.51.1.34.46.76.72,1.36.62.04,0,.09,0,.13,0,.31.02.57-.04.7-.37.06-.15.19-.29.34-.37.22-.13.34-.32.44-.54.12-.28.29-.54.54-.73.55-.42,1.31-.2,1.54.46.07.17.1.36.09.54-.01.19.07.22.23.22.43,0,.85.01,1.28.03.32.01.64.06.92.22.65.36.73,1.25.14,1.71-.33.25-.71.35-1.11.38-.15.01-.21.06-.23.22-.14,1.19-1.04,1.99-2.25,1.98Z"/>
  <path class="cls-3" d="m20.82,19.74c-1.23.02-2.25-.08-3.24-.41-.49-.17-.96-.38-1.38-.69-.22-.16-.27-.35-.15-.52.12-.17.32-.19.54-.04.84.59,1.81.85,2.81.93,2.27.18,4.44-.22,6.49-1.22.69-.33,1.32-.76,1.83-1.36.27-.32.47-.67.57-1.08,0-.03.01-.06.02-.08.07-.2.24-.3.43-.24.17.05.27.22.22.42-.17.79-.63,1.4-1.22,1.92-.83.73-1.8,1.21-2.84,1.58-1.38.48-2.81.74-4.09.78Z"/>
  <path class="cls-3" d="m17.05,15.13c0-.81.62-1.46,1.4-1.46s1.44.66,1.44,1.48c0,.82-.62,1.47-1.41,1.47s-1.44-.67-1.44-1.49Z"/>
  <path class="cls-3" d="m27.53,13.58c0,.33-.09.62-.28.88-.34.46-.91.54-1.36.2-.62-.46-.78-1.45-.33-2.08.38-.53,1.04-.59,1.5-.13.31.32.46.71.46,1.13Z"/>
</svg>